<mxfile host="65bd71144e">
    <diagram id="u-oMeDK_ZdUd53pc3fKc" name="Page-1">
        <mxGraphModel dx="888" dy="507" grid="1" gridSize="10" guides="1" tooltips="1" connect="1" arrows="1" fold="1" page="1" pageScale="1" pageWidth="827" pageHeight="1169" math="0" shadow="0">
            <root>
                <mxCell id="0"/>
                <mxCell id="1" parent="0"/>
            </root>
        </mxGraphModel>
    </diagram>
    <diagram id="XgpKrwO1tzN4QJ1RnELN" name="Page-1">
        <mxGraphModel dx="1715" dy="507" grid="1" gridSize="10" guides="1" tooltips="1" connect="1" arrows="1" fold="1" page="1" pageScale="1" pageWidth="827" pageHeight="1169" math="0" shadow="0">
            <root>
                <mxCell id="0"/>
                <mxCell id="1" parent="0"/>
                <mxCell id="4" value="" style="shape=table;startSize=0;container=1;collapsible=0;childLayout=tableLayout;fontSize=16;" parent="1" vertex="1">
                    <mxGeometry x="-360" y="20" width="920" height="613" as="geometry"/>
                </mxCell>
                <mxCell id="66KdH45B9C6m9lOdalc1-39" style="shape=partialRectangle;collapsible=0;dropTarget=0;pointerEvents=0;fillColor=none;top=0;left=0;bottom=0;right=0;points=[[0,0.5],[1,0.5]];portConstraint=eastwest;fontSize=16;" parent="4" vertex="1">
                    <mxGeometry width="920" height="36" as="geometry"/>
                </mxCell>
                <mxCell id="66KdH45B9C6m9lOdalc1-40" value="Use case" style="shape=partialRectangle;html=1;whiteSpace=wrap;connectable=0;overflow=hidden;fillColor=none;top=0;left=0;bottom=0;right=0;pointerEvents=1;fontSize=16;align=left;" parent="66KdH45B9C6m9lOdalc1-39" vertex="1">
                    <mxGeometry width="407" height="36" as="geometry">
                        <mxRectangle width="407" height="36" as="alternateBounds"/>
                    </mxGeometry>
                </mxCell>
                <mxCell id="66KdH45B9C6m9lOdalc1-41" value="Enpoint" style="shape=partialRectangle;html=1;whiteSpace=wrap;connectable=0;overflow=hidden;fillColor=none;top=0;left=0;bottom=0;right=0;pointerEvents=1;fontSize=16;" parent="66KdH45B9C6m9lOdalc1-39" vertex="1">
                    <mxGeometry x="407" width="273" height="36" as="geometry">
                        <mxRectangle width="273" height="36" as="alternateBounds"/>
                    </mxGeometry>
                </mxCell>
                <mxCell id="66KdH45B9C6m9lOdalc1-42" value="Request Type" style="shape=partialRectangle;html=1;whiteSpace=wrap;connectable=0;overflow=hidden;fillColor=none;top=0;left=0;bottom=0;right=0;pointerEvents=1;fontSize=16;" parent="66KdH45B9C6m9lOdalc1-39" vertex="1">
                    <mxGeometry x="680" width="80" height="36" as="geometry">
                        <mxRectangle width="80" height="36" as="alternateBounds"/>
                    </mxGeometry>
                </mxCell>
                <mxCell id="_Em2V3_TzhkZg04jyShi-53" value="Secure Route" style="shape=partialRectangle;html=1;whiteSpace=wrap;connectable=0;overflow=hidden;fillColor=none;top=0;left=0;bottom=0;right=0;pointerEvents=1;fontSize=16;" parent="66KdH45B9C6m9lOdalc1-39" vertex="1">
                    <mxGeometry x="760" width="160" height="36" as="geometry">
                        <mxRectangle width="160" height="36" as="alternateBounds"/>
                    </mxGeometry>
                </mxCell>
                <mxCell id="5" value="" style="shape=partialRectangle;collapsible=0;dropTarget=0;pointerEvents=0;fillColor=none;top=0;left=0;bottom=0;right=0;points=[[0,0.5],[1,0.5]];portConstraint=eastwest;fontSize=16;" parent="4" vertex="1">
                    <mxGeometry y="36" width="920" height="46" as="geometry"/>
                </mxCell>
                <mxCell id="6" value="&lt;span style=&quot;font-family: helvetica;&quot;&gt;User can register for the site&lt;/span&gt;" style="shape=partialRectangle;html=1;whiteSpace=wrap;connectable=0;overflow=hidden;fillColor=none;top=0;left=0;bottom=0;right=0;pointerEvents=1;fontSize=16;align=left;" parent="5" vertex="1">
                    <mxGeometry width="407" height="46" as="geometry">
                        <mxRectangle width="407" height="46" as="alternateBounds"/>
                    </mxGeometry>
                </mxCell>
                <mxCell id="7" value="/register" style="shape=partialRectangle;html=1;whiteSpace=wrap;connectable=0;overflow=hidden;fillColor=none;top=0;left=0;bottom=0;right=0;pointerEvents=1;fontSize=16;" parent="5" vertex="1">
                    <mxGeometry x="407" width="273" height="46" as="geometry">
                        <mxRectangle width="273" height="46" as="alternateBounds"/>
                    </mxGeometry>
                </mxCell>
                <mxCell id="8" value="post" style="shape=partialRectangle;html=1;whiteSpace=wrap;connectable=0;overflow=hidden;fillColor=none;top=0;left=0;bottom=0;right=0;pointerEvents=1;fontSize=16;" parent="5" vertex="1">
                    <mxGeometry x="680" width="80" height="46" as="geometry">
                        <mxRectangle width="80" height="46" as="alternateBounds"/>
                    </mxGeometry>
                </mxCell>
                <mxCell id="_Em2V3_TzhkZg04jyShi-54" value="false" style="shape=partialRectangle;html=1;whiteSpace=wrap;connectable=0;overflow=hidden;fillColor=none;top=0;left=0;bottom=0;right=0;pointerEvents=1;fontSize=16;" parent="5" vertex="1">
                    <mxGeometry x="760" width="160" height="46" as="geometry">
                        <mxRectangle width="160" height="46" as="alternateBounds"/>
                    </mxGeometry>
                </mxCell>
                <mxCell id="10" value="" style="shape=partialRectangle;collapsible=0;dropTarget=0;pointerEvents=0;fillColor=none;top=0;left=0;bottom=0;right=0;points=[[0,0.5],[1,0.5]];portConstraint=eastwest;fontSize=16;" parent="4" vertex="1">
                    <mxGeometry y="82" width="920" height="48" as="geometry"/>
                </mxCell>
                <mxCell id="11" value="&lt;div&gt;&lt;span style=&quot;font-family: &amp;#34;helvetica&amp;#34;&quot;&gt;User can view questions&lt;/span&gt;&lt;/div&gt;" style="shape=partialRectangle;html=1;whiteSpace=wrap;connectable=0;overflow=hidden;fillColor=none;top=0;left=0;bottom=0;right=0;pointerEvents=1;fontSize=16;align=left;" parent="10" vertex="1">
                    <mxGeometry width="407" height="48" as="geometry">
                        <mxRectangle width="407" height="48" as="alternateBounds"/>
                    </mxGeometry>
                </mxCell>
                <mxCell id="12" value="/questions" style="shape=partialRectangle;html=1;whiteSpace=wrap;connectable=0;overflow=hidden;fillColor=none;top=0;left=0;bottom=0;right=0;pointerEvents=1;fontSize=16;" parent="10" vertex="1">
                    <mxGeometry x="407" width="273" height="48" as="geometry">
                        <mxRectangle width="273" height="48" as="alternateBounds"/>
                    </mxGeometry>
                </mxCell>
                <mxCell id="13" value="get" style="shape=partialRectangle;html=1;whiteSpace=wrap;connectable=0;overflow=hidden;fillColor=none;top=0;left=0;bottom=0;right=0;pointerEvents=1;fontSize=16;" parent="10" vertex="1">
                    <mxGeometry x="680" width="80" height="48" as="geometry">
                        <mxRectangle width="80" height="48" as="alternateBounds"/>
                    </mxGeometry>
                </mxCell>
                <mxCell id="_Em2V3_TzhkZg04jyShi-55" value="false" style="shape=partialRectangle;html=1;whiteSpace=wrap;connectable=0;overflow=hidden;fillColor=none;top=0;left=0;bottom=0;right=0;pointerEvents=1;fontSize=16;" parent="10" vertex="1">
                    <mxGeometry x="760" width="160" height="48" as="geometry">
                        <mxRectangle width="160" height="48" as="alternateBounds"/>
                    </mxGeometry>
                </mxCell>
                <mxCell id="_Em2V3_TzhkZg04jyShi-49" style="shape=partialRectangle;collapsible=0;dropTarget=0;pointerEvents=0;fillColor=none;top=0;left=0;bottom=0;right=0;points=[[0,0.5],[1,0.5]];portConstraint=eastwest;fontSize=16;" parent="4" vertex="1">
                    <mxGeometry y="130" width="920" height="48" as="geometry"/>
                </mxCell>
                <mxCell id="_Em2V3_TzhkZg04jyShi-50" value="User can view answers" style="shape=partialRectangle;html=1;whiteSpace=wrap;connectable=0;overflow=hidden;fillColor=none;top=0;left=0;bottom=0;right=0;pointerEvents=1;fontSize=16;align=left;" parent="_Em2V3_TzhkZg04jyShi-49" vertex="1">
                    <mxGeometry width="407" height="48" as="geometry">
                        <mxRectangle width="407" height="48" as="alternateBounds"/>
                    </mxGeometry>
                </mxCell>
                <mxCell id="_Em2V3_TzhkZg04jyShi-51" value="/questions/:questionId" style="shape=partialRectangle;html=1;whiteSpace=wrap;connectable=0;overflow=hidden;fillColor=none;top=0;left=0;bottom=0;right=0;pointerEvents=1;fontSize=16;" parent="_Em2V3_TzhkZg04jyShi-49" vertex="1">
                    <mxGeometry x="407" width="273" height="48" as="geometry">
                        <mxRectangle width="273" height="48" as="alternateBounds"/>
                    </mxGeometry>
                </mxCell>
                <mxCell id="_Em2V3_TzhkZg04jyShi-52" value="get" style="shape=partialRectangle;html=1;whiteSpace=wrap;connectable=0;overflow=hidden;fillColor=none;top=0;left=0;bottom=0;right=0;pointerEvents=1;fontSize=16;" parent="_Em2V3_TzhkZg04jyShi-49" vertex="1">
                    <mxGeometry x="680" width="80" height="48" as="geometry">
                        <mxRectangle width="80" height="48" as="alternateBounds"/>
                    </mxGeometry>
                </mxCell>
                <mxCell id="_Em2V3_TzhkZg04jyShi-56" value="false" style="shape=partialRectangle;html=1;whiteSpace=wrap;connectable=0;overflow=hidden;fillColor=none;top=0;left=0;bottom=0;right=0;pointerEvents=1;fontSize=16;" parent="_Em2V3_TzhkZg04jyShi-49" vertex="1">
                    <mxGeometry x="760" width="160" height="48" as="geometry">
                        <mxRectangle width="160" height="48" as="alternateBounds"/>
                    </mxGeometry>
                </mxCell>
                <mxCell id="15" value="" style="shape=partialRectangle;collapsible=0;dropTarget=0;pointerEvents=0;fillColor=none;top=0;left=0;bottom=0;right=0;points=[[0,0.5],[1,0.5]];portConstraint=eastwest;fontSize=16;" parent="4" vertex="1">
                    <mxGeometry y="178" width="920" height="46" as="geometry"/>
                </mxCell>
                <mxCell id="16" value="&lt;span style=&quot;font-family: &amp;#34;helvetica&amp;#34;&quot;&gt;User can login&lt;/span&gt;" style="shape=partialRectangle;html=1;whiteSpace=wrap;connectable=0;overflow=hidden;fillColor=none;top=0;left=0;bottom=0;right=0;pointerEvents=1;fontSize=16;align=left;" parent="15" vertex="1">
                    <mxGeometry width="407" height="46" as="geometry">
                        <mxRectangle width="407" height="46" as="alternateBounds"/>
                    </mxGeometry>
                </mxCell>
                <mxCell id="17" value="/login" style="shape=partialRectangle;html=1;whiteSpace=wrap;connectable=0;overflow=hidden;fillColor=none;top=0;left=0;bottom=0;right=0;pointerEvents=1;fontSize=16;" parent="15" vertex="1">
                    <mxGeometry x="407" width="273" height="46" as="geometry">
                        <mxRectangle width="273" height="46" as="alternateBounds"/>
                    </mxGeometry>
                </mxCell>
                <mxCell id="18" value="post" style="shape=partialRectangle;html=1;whiteSpace=wrap;connectable=0;overflow=hidden;fillColor=none;top=0;left=0;bottom=0;right=0;pointerEvents=1;fontSize=16;" parent="15" vertex="1">
                    <mxGeometry x="680" width="80" height="46" as="geometry">
                        <mxRectangle width="80" height="46" as="alternateBounds"/>
                    </mxGeometry>
                </mxCell>
                <mxCell id="_Em2V3_TzhkZg04jyShi-57" value="false" style="shape=partialRectangle;html=1;whiteSpace=wrap;connectable=0;overflow=hidden;fillColor=none;top=0;left=0;bottom=0;right=0;pointerEvents=1;fontSize=16;" parent="15" vertex="1">
                    <mxGeometry x="760" width="160" height="46" as="geometry">
                        <mxRectangle width="160" height="46" as="alternateBounds"/>
                    </mxGeometry>
                </mxCell>
                <mxCell id="20" value="" style="shape=partialRectangle;collapsible=0;dropTarget=0;pointerEvents=0;fillColor=none;top=0;left=0;bottom=0;right=0;points=[[0,0.5],[1,0.5]];portConstraint=eastwest;fontSize=16;" parent="4" vertex="1">
                    <mxGeometry y="224" width="920" height="46" as="geometry"/>
                </mxCell>
                <mxCell id="21" value="&lt;span style=&quot;font-family: &amp;#34;helvetica&amp;#34;&quot;&gt;Anonymous user can vote on answers&lt;/span&gt;" style="shape=partialRectangle;html=1;whiteSpace=wrap;connectable=0;overflow=hidden;fillColor=none;top=0;left=0;bottom=0;right=0;pointerEvents=1;fontSize=16;align=left;" parent="20" vertex="1">
                    <mxGeometry width="407" height="46" as="geometry">
                        <mxRectangle width="407" height="46" as="alternateBounds"/>
                    </mxGeometry>
                </mxCell>
                <mxCell id="22" value="&lt;span&gt;/questions/:questionId&lt;/span&gt;" style="shape=partialRectangle;html=1;whiteSpace=wrap;connectable=0;overflow=hidden;fillColor=none;top=0;left=0;bottom=0;right=0;pointerEvents=1;fontSize=16;" parent="20" vertex="1">
                    <mxGeometry x="407" width="273" height="46" as="geometry">
                        <mxRectangle width="273" height="46" as="alternateBounds"/>
                    </mxGeometry>
                </mxCell>
                <mxCell id="23" value="post" style="shape=partialRectangle;html=1;whiteSpace=wrap;connectable=0;overflow=hidden;fillColor=none;top=0;left=0;bottom=0;right=0;pointerEvents=1;fontSize=16;" parent="20" vertex="1">
                    <mxGeometry x="680" width="80" height="46" as="geometry">
                        <mxRectangle width="80" height="46" as="alternateBounds"/>
                    </mxGeometry>
                </mxCell>
                <mxCell id="_Em2V3_TzhkZg04jyShi-58" value="false" style="shape=partialRectangle;html=1;whiteSpace=wrap;connectable=0;overflow=hidden;fillColor=none;top=0;left=0;bottom=0;right=0;pointerEvents=1;fontSize=16;" parent="20" vertex="1">
                    <mxGeometry x="760" width="160" height="46" as="geometry">
                        <mxRectangle width="160" height="46" as="alternateBounds"/>
                    </mxGeometry>
                </mxCell>
                <mxCell id="25" value="" style="shape=partialRectangle;collapsible=0;dropTarget=0;pointerEvents=0;fillColor=none;top=0;left=0;bottom=0;right=0;points=[[0,0.5],[1,0.5]];portConstraint=eastwest;fontSize=16;" parent="4" vertex="1">
                    <mxGeometry y="270" width="920" height="46" as="geometry"/>
                </mxCell>
                <mxCell id="26" value="&lt;div&gt;&lt;span style=&quot;font-family: &amp;#34;helvetica&amp;#34;&quot;&gt;User can post a question&lt;/span&gt;&lt;/div&gt;" style="shape=partialRectangle;html=1;whiteSpace=wrap;connectable=0;overflow=hidden;fillColor=none;top=0;left=0;bottom=0;right=0;pointerEvents=1;fontSize=16;align=left;" parent="25" vertex="1">
                    <mxGeometry width="407" height="46" as="geometry">
                        <mxRectangle width="407" height="46" as="alternateBounds"/>
                    </mxGeometry>
                </mxCell>
                <mxCell id="27" value="/questions/add" style="shape=partialRectangle;html=1;whiteSpace=wrap;connectable=0;overflow=hidden;fillColor=none;top=0;left=0;bottom=0;right=0;pointerEvents=1;fontSize=16;" parent="25" vertex="1">
                    <mxGeometry x="407" width="273" height="46" as="geometry">
                        <mxRectangle width="273" height="46" as="alternateBounds"/>
                    </mxGeometry>
                </mxCell>
                <mxCell id="28" value="post" style="shape=partialRectangle;html=1;whiteSpace=wrap;connectable=0;overflow=hidden;fillColor=none;top=0;left=0;bottom=0;right=0;pointerEvents=1;fontSize=16;" parent="25" vertex="1">
                    <mxGeometry x="680" width="80" height="46" as="geometry">
                        <mxRectangle width="80" height="46" as="alternateBounds"/>
                    </mxGeometry>
                </mxCell>
                <mxCell id="_Em2V3_TzhkZg04jyShi-59" value="true" style="shape=partialRectangle;html=1;whiteSpace=wrap;connectable=0;overflow=hidden;fillColor=none;top=0;left=0;bottom=0;right=0;pointerEvents=1;fontSize=16;" parent="25" vertex="1">
                    <mxGeometry x="760" width="160" height="46" as="geometry">
                        <mxRectangle width="160" height="46" as="alternateBounds"/>
                    </mxGeometry>
                </mxCell>
                <mxCell id="30" value="" style="shape=partialRectangle;collapsible=0;dropTarget=0;pointerEvents=0;fillColor=none;top=0;left=0;bottom=0;right=0;points=[[0,0.5],[1,0.5]];portConstraint=eastwest;fontSize=16;" parent="4" vertex="1">
                    <mxGeometry y="316" width="920" height="47" as="geometry"/>
                </mxCell>
                <mxCell id="31" value="&lt;span style=&quot;font-family: helvetica;&quot;&gt;User can post an answer a question&lt;/span&gt;" style="shape=partialRectangle;html=1;whiteSpace=wrap;connectable=0;overflow=hidden;fillColor=none;top=0;left=0;bottom=0;right=0;pointerEvents=1;fontSize=16;align=left;" parent="30" vertex="1">
                    <mxGeometry width="407" height="47" as="geometry">
                        <mxRectangle width="407" height="47" as="alternateBounds"/>
                    </mxGeometry>
                </mxCell>
                <mxCell id="32" value="/questions/:questionId/addAnswer" style="shape=partialRectangle;html=1;whiteSpace=wrap;connectable=0;overflow=hidden;fillColor=none;top=0;left=0;bottom=0;right=0;pointerEvents=1;fontSize=16;" parent="30" vertex="1">
                    <mxGeometry x="407" width="273" height="47" as="geometry">
                        <mxRectangle width="273" height="47" as="alternateBounds"/>
                    </mxGeometry>
                </mxCell>
                <mxCell id="33" value="post" style="shape=partialRectangle;html=1;whiteSpace=wrap;connectable=0;overflow=hidden;fillColor=none;top=0;left=0;bottom=0;right=0;pointerEvents=1;fontSize=16;" parent="30" vertex="1">
                    <mxGeometry x="680" width="80" height="47" as="geometry">
                        <mxRectangle width="80" height="47" as="alternateBounds"/>
                    </mxGeometry>
                </mxCell>
                <mxCell id="_Em2V3_TzhkZg04jyShi-60" value="true" style="shape=partialRectangle;html=1;whiteSpace=wrap;connectable=0;overflow=hidden;fillColor=none;top=0;left=0;bottom=0;right=0;pointerEvents=1;fontSize=16;" parent="30" vertex="1">
                    <mxGeometry x="760" width="160" height="47" as="geometry">
                        <mxRectangle width="160" height="47" as="alternateBounds"/>
                    </mxGeometry>
                </mxCell>
                <mxCell id="35" value="" style="shape=partialRectangle;collapsible=0;dropTarget=0;pointerEvents=0;fillColor=none;top=0;left=0;bottom=0;right=0;points=[[0,0.5],[1,0.5]];portConstraint=eastwest;fontSize=16;" parent="4" vertex="1">
                    <mxGeometry y="363" width="920" height="46" as="geometry"/>
                </mxCell>
                <mxCell id="36" value="&lt;span style=&quot;font-family: &amp;#34;helvetica&amp;#34;&quot;&gt;User can vote once on answers&lt;/span&gt;" style="shape=partialRectangle;html=1;whiteSpace=wrap;connectable=0;overflow=hidden;fillColor=none;top=0;left=0;bottom=0;right=0;pointerEvents=1;fontSize=16;align=left;" parent="35" vertex="1">
                    <mxGeometry width="407" height="46" as="geometry">
                        <mxRectangle width="407" height="46" as="alternateBounds"/>
                    </mxGeometry>
                </mxCell>
                <mxCell id="37" value="&lt;span&gt;/questions/:questionId&lt;/span&gt;" style="shape=partialRectangle;html=1;whiteSpace=wrap;connectable=0;overflow=hidden;fillColor=none;top=0;left=0;bottom=0;right=0;pointerEvents=1;fontSize=16;" parent="35" vertex="1">
                    <mxGeometry x="407" width="273" height="46" as="geometry">
                        <mxRectangle width="273" height="46" as="alternateBounds"/>
                    </mxGeometry>
                </mxCell>
                <mxCell id="38" value="post" style="shape=partialRectangle;html=1;whiteSpace=wrap;connectable=0;overflow=hidden;fillColor=none;top=0;left=0;bottom=0;right=0;pointerEvents=1;fontSize=16;" parent="35" vertex="1">
                    <mxGeometry x="680" width="80" height="46" as="geometry">
                        <mxRectangle width="80" height="46" as="alternateBounds"/>
                    </mxGeometry>
                </mxCell>
                <mxCell id="_Em2V3_TzhkZg04jyShi-61" value="true" style="shape=partialRectangle;html=1;whiteSpace=wrap;connectable=0;overflow=hidden;fillColor=none;top=0;left=0;bottom=0;right=0;pointerEvents=1;fontSize=16;" parent="35" vertex="1">
                    <mxGeometry x="760" width="160" height="46" as="geometry">
                        <mxRectangle width="160" height="46" as="alternateBounds"/>
                    </mxGeometry>
                </mxCell>
                <mxCell id="45" style="shape=partialRectangle;collapsible=0;dropTarget=0;pointerEvents=0;fillColor=none;top=0;left=0;bottom=0;right=0;points=[[0,0.5],[1,0.5]];portConstraint=eastwest;fontSize=16;" parent="4" vertex="1">
                    <mxGeometry y="409" width="920" height="51" as="geometry"/>
                </mxCell>
                <mxCell id="46" value="&lt;span style=&quot;font-family: &amp;#34;helvetica&amp;#34;&quot;&gt;User can delete their own question&lt;/span&gt;" style="shape=partialRectangle;html=1;whiteSpace=wrap;connectable=0;overflow=hidden;fillColor=none;top=0;left=0;bottom=0;right=0;pointerEvents=1;fontSize=16;align=left;" parent="45" vertex="1">
                    <mxGeometry width="407" height="51" as="geometry">
                        <mxRectangle width="407" height="51" as="alternateBounds"/>
                    </mxGeometry>
                </mxCell>
                <mxCell id="47" value="&lt;span&gt;/questions/:questionId&lt;/span&gt;" style="shape=partialRectangle;html=1;whiteSpace=wrap;connectable=0;overflow=hidden;fillColor=none;top=0;left=0;bottom=0;right=0;pointerEvents=1;fontSize=16;" parent="45" vertex="1">
                    <mxGeometry x="407" width="273" height="51" as="geometry">
                        <mxRectangle width="273" height="51" as="alternateBounds"/>
                    </mxGeometry>
                </mxCell>
                <mxCell id="48" value="delete" style="shape=partialRectangle;html=1;whiteSpace=wrap;connectable=0;overflow=hidden;fillColor=none;top=0;left=0;bottom=0;right=0;pointerEvents=1;fontSize=16;" parent="45" vertex="1">
                    <mxGeometry x="680" width="80" height="51" as="geometry">
                        <mxRectangle width="80" height="51" as="alternateBounds"/>
                    </mxGeometry>
                </mxCell>
                <mxCell id="_Em2V3_TzhkZg04jyShi-62" value="true" style="shape=partialRectangle;html=1;whiteSpace=wrap;connectable=0;overflow=hidden;fillColor=none;top=0;left=0;bottom=0;right=0;pointerEvents=1;fontSize=16;" parent="45" vertex="1">
                    <mxGeometry x="760" width="160" height="51" as="geometry">
                        <mxRectangle width="160" height="51" as="alternateBounds"/>
                    </mxGeometry>
                </mxCell>
                <mxCell id="49" style="shape=partialRectangle;html=1;whiteSpace=wrap;connectable=0;overflow=hidden;fillColor=none;top=0;left=0;bottom=0;right=0;pointerEvents=1;fontSize=16;" parent="45" vertex="1">
                    <mxGeometry x="920" height="51" as="geometry">
                        <mxRectangle width="NaN" height="51" as="alternateBounds"/>
                    </mxGeometry>
                </mxCell>
                <mxCell id="40" style="shape=partialRectangle;collapsible=0;dropTarget=0;pointerEvents=0;fillColor=none;top=0;left=0;bottom=0;right=0;points=[[0,0.5],[1,0.5]];portConstraint=eastwest;fontSize=16;" parent="4" vertex="1">
                    <mxGeometry y="460" width="920" height="51" as="geometry"/>
                </mxCell>
                <mxCell id="41" value="&lt;span style=&quot;font-family: &amp;#34;helvetica&amp;#34;&quot;&gt;Users can see&amp;nbsp; their profile&amp;nbsp;&lt;/span&gt;" style="shape=partialRectangle;html=1;whiteSpace=wrap;connectable=0;overflow=hidden;fillColor=none;top=0;left=0;bottom=0;right=0;pointerEvents=1;fontSize=16;align=left;" parent="40" vertex="1">
                    <mxGeometry width="407" height="51" as="geometry">
                        <mxRectangle width="407" height="51" as="alternateBounds"/>
                    </mxGeometry>
                </mxCell>
                <mxCell id="42" value="/profile" style="shape=partialRectangle;html=1;whiteSpace=wrap;connectable=0;overflow=hidden;fillColor=none;top=0;left=0;bottom=0;right=0;pointerEvents=1;fontSize=16;" parent="40" vertex="1">
                    <mxGeometry x="407" width="273" height="51" as="geometry">
                        <mxRectangle width="273" height="51" as="alternateBounds"/>
                    </mxGeometry>
                </mxCell>
                <mxCell id="43" value="get" style="shape=partialRectangle;html=1;whiteSpace=wrap;connectable=0;overflow=hidden;fillColor=none;top=0;left=0;bottom=0;right=0;pointerEvents=1;fontSize=16;" parent="40" vertex="1">
                    <mxGeometry x="680" width="80" height="51" as="geometry">
                        <mxRectangle width="80" height="51" as="alternateBounds"/>
                    </mxGeometry>
                </mxCell>
                <mxCell id="_Em2V3_TzhkZg04jyShi-63" value="true" style="shape=partialRectangle;html=1;whiteSpace=wrap;connectable=0;overflow=hidden;fillColor=none;top=0;left=0;bottom=0;right=0;pointerEvents=1;fontSize=16;" parent="40" vertex="1">
                    <mxGeometry x="760" width="160" height="51" as="geometry">
                        <mxRectangle width="160" height="51" as="alternateBounds"/>
                    </mxGeometry>
                </mxCell>
                <mxCell id="44" style="shape=partialRectangle;html=1;whiteSpace=wrap;connectable=0;overflow=hidden;fillColor=none;top=0;left=0;bottom=0;right=0;pointerEvents=1;fontSize=16;" parent="40" vertex="1">
                    <mxGeometry x="920" height="51" as="geometry">
                        <mxRectangle width="NaN" height="51" as="alternateBounds"/>
                    </mxGeometry>
                </mxCell>
                <mxCell id="_Em2V3_TzhkZg04jyShi-70" style="shape=partialRectangle;collapsible=0;dropTarget=0;pointerEvents=0;fillColor=none;top=0;left=0;bottom=0;right=0;points=[[0,0.5],[1,0.5]];portConstraint=eastwest;fontSize=16;" parent="4" vertex="1">
                    <mxGeometry y="511" width="920" height="51" as="geometry"/>
                </mxCell>
                <mxCell id="_Em2V3_TzhkZg04jyShi-71" value="User can update their profile&amp;nbsp;&lt;span style=&quot;font-family: &amp;#34;helvetica&amp;#34;&quot;&gt;(e.g. edit password, email address)&lt;/span&gt;" style="shape=partialRectangle;html=1;whiteSpace=wrap;connectable=0;overflow=hidden;fillColor=none;top=0;left=0;bottom=0;right=0;pointerEvents=1;fontSize=16;align=left;" parent="_Em2V3_TzhkZg04jyShi-70" vertex="1">
                    <mxGeometry width="407" height="51" as="geometry">
                        <mxRectangle width="407" height="51" as="alternateBounds"/>
                    </mxGeometry>
                </mxCell>
                <mxCell id="_Em2V3_TzhkZg04jyShi-72" value="&lt;span&gt;/profile&lt;/span&gt;" style="shape=partialRectangle;html=1;whiteSpace=wrap;connectable=0;overflow=hidden;fillColor=none;top=0;left=0;bottom=0;right=0;pointerEvents=1;fontSize=16;" parent="_Em2V3_TzhkZg04jyShi-70" vertex="1">
                    <mxGeometry x="407" width="273" height="51" as="geometry">
                        <mxRectangle width="273" height="51" as="alternateBounds"/>
                    </mxGeometry>
                </mxCell>
                <mxCell id="_Em2V3_TzhkZg04jyShi-73" value="put" style="shape=partialRectangle;html=1;whiteSpace=wrap;connectable=0;overflow=hidden;fillColor=none;top=0;left=0;bottom=0;right=0;pointerEvents=1;fontSize=16;" parent="_Em2V3_TzhkZg04jyShi-70" vertex="1">
                    <mxGeometry x="680" width="80" height="51" as="geometry">
                        <mxRectangle width="80" height="51" as="alternateBounds"/>
                    </mxGeometry>
                </mxCell>
                <mxCell id="_Em2V3_TzhkZg04jyShi-74" value="true" style="shape=partialRectangle;html=1;whiteSpace=wrap;connectable=0;overflow=hidden;fillColor=none;top=0;left=0;bottom=0;right=0;pointerEvents=1;fontSize=16;" parent="_Em2V3_TzhkZg04jyShi-70" vertex="1">
                    <mxGeometry x="760" width="160" height="51" as="geometry">
                        <mxRectangle width="160" height="51" as="alternateBounds"/>
                    </mxGeometry>
                </mxCell>
                <mxCell id="_Em2V3_TzhkZg04jyShi-75" style="shape=partialRectangle;html=1;whiteSpace=wrap;connectable=0;overflow=hidden;fillColor=none;top=0;left=0;bottom=0;right=0;pointerEvents=1;fontSize=16;" parent="_Em2V3_TzhkZg04jyShi-70" vertex="1">
                    <mxGeometry x="920" height="51" as="geometry">
                        <mxRectangle width="NaN" height="51" as="alternateBounds"/>
                    </mxGeometry>
                </mxCell>
                <mxCell id="_Em2V3_TzhkZg04jyShi-64" style="shape=partialRectangle;collapsible=0;dropTarget=0;pointerEvents=0;fillColor=none;top=0;left=0;bottom=0;right=0;points=[[0,0.5],[1,0.5]];portConstraint=eastwest;fontSize=16;" parent="4" vertex="1">
                    <mxGeometry y="562" width="920" height="51" as="geometry"/>
                </mxCell>
                <mxCell id="_Em2V3_TzhkZg04jyShi-65" value="Users can delete their profile" style="shape=partialRectangle;html=1;whiteSpace=wrap;connectable=0;overflow=hidden;fillColor=none;top=0;left=0;bottom=0;right=0;pointerEvents=1;fontSize=16;align=left;" parent="_Em2V3_TzhkZg04jyShi-64" vertex="1">
                    <mxGeometry width="407" height="51" as="geometry">
                        <mxRectangle width="407" height="51" as="alternateBounds"/>
                    </mxGeometry>
                </mxCell>
                <mxCell id="_Em2V3_TzhkZg04jyShi-66" value="&lt;span&gt;/profile&lt;/span&gt;" style="shape=partialRectangle;html=1;whiteSpace=wrap;connectable=0;overflow=hidden;fillColor=none;top=0;left=0;bottom=0;right=0;pointerEvents=1;fontSize=16;" parent="_Em2V3_TzhkZg04jyShi-64" vertex="1">
                    <mxGeometry x="407" width="273" height="51" as="geometry">
                        <mxRectangle width="273" height="51" as="alternateBounds"/>
                    </mxGeometry>
                </mxCell>
                <mxCell id="_Em2V3_TzhkZg04jyShi-67" value="delete" style="shape=partialRectangle;html=1;whiteSpace=wrap;connectable=0;overflow=hidden;fillColor=none;top=0;left=0;bottom=0;right=0;pointerEvents=1;fontSize=16;" parent="_Em2V3_TzhkZg04jyShi-64" vertex="1">
                    <mxGeometry x="680" width="80" height="51" as="geometry">
                        <mxRectangle width="80" height="51" as="alternateBounds"/>
                    </mxGeometry>
                </mxCell>
                <mxCell id="_Em2V3_TzhkZg04jyShi-68" value="true" style="shape=partialRectangle;html=1;whiteSpace=wrap;connectable=0;overflow=hidden;fillColor=none;top=0;left=0;bottom=0;right=0;pointerEvents=1;fontSize=16;" parent="_Em2V3_TzhkZg04jyShi-64" vertex="1">
                    <mxGeometry x="760" width="160" height="51" as="geometry">
                        <mxRectangle width="160" height="51" as="alternateBounds"/>
                    </mxGeometry>
                </mxCell>
                <mxCell id="_Em2V3_TzhkZg04jyShi-69" style="shape=partialRectangle;html=1;whiteSpace=wrap;connectable=0;overflow=hidden;fillColor=none;top=0;left=0;bottom=0;right=0;pointerEvents=1;fontSize=16;" parent="_Em2V3_TzhkZg04jyShi-64" vertex="1">
                    <mxGeometry x="920" height="51" as="geometry">
                        <mxRectangle width="NaN" height="51" as="alternateBounds"/>
                    </mxGeometry>
                </mxCell>
            </root>
        </mxGraphModel>
    </diagram>
</mxfile>